<svg xmlns="http://www.w3.org/2000/svg" width="960" height="520" viewBox="0 0 960 520">
<title>Median Phase 8 detection, Pod readiness, and service recovery times</title>
<rect width="100%" height="100%" fill="#0f172a"/>
<text x="48" y="38" fill="#f8fafc" font-size="22" font-family="sans-serif">Phase 8 median recovery boundaries</text>
<line x1="90" y1="410" x2="890" y2="410" stroke="#64748b"/>
<rect x="134.3" y="409.7" width="54" height="0.3" fill="#3b82f6" rx="4"/>
<text x="161.3" y="402.7" text-anchor="middle" fill="#e2e8f0" font-size="12" font-family="sans-serif">0.2s</text>
<rect x="196.3" y="402.8" width="54" height="7.2" fill="#f59e0b" rx="4"/>
<text x="223.3" y="395.8" text-anchor="middle" fill="#e2e8f0" font-size="12" font-family="sans-serif">4.5s</text>
<rect x="258.3" y="70.0" width="54" height="340.0" fill="#10b981" rx="4"/>
<text x="285.3" y="63.0" text-anchor="middle" fill="#e2e8f0" font-size="12" font-family="sans-serif">212.2s</text>
<text x="223.3" y="440" text-anchor="middle" fill="#f8fafc" font-size="16" font-family="sans-serif">AMF</text>
<rect x="401.0" y="409.7" width="54" height="0.3" fill="#3b82f6" rx="4"/>
<text x="428.0" y="402.7" text-anchor="middle" fill="#e2e8f0" font-size="12" font-family="sans-serif">0.2s</text>
<rect x="463.0" y="402.9" width="54" height="7.1" fill="#f59e0b" rx="4"/>
<text x="490.0" y="395.9" text-anchor="middle" fill="#e2e8f0" font-size="12" font-family="sans-serif">4.4s</text>
<rect x="525.0" y="72.3" width="54" height="337.7" fill="#10b981" rx="4"/>
<text x="552.0" y="65.3" text-anchor="middle" fill="#e2e8f0" font-size="12" font-family="sans-serif">210.8s</text>
<text x="490.0" y="440" text-anchor="middle" fill="#f8fafc" font-size="16" font-family="sans-serif">SMF</text>
<rect x="667.7" y="409.7" width="54" height="0.3" fill="#3b82f6" rx="4"/>
<text x="694.7" y="402.7" text-anchor="middle" fill="#e2e8f0" font-size="12" font-family="sans-serif">0.2s</text>
<rect x="729.7" y="399.5" width="54" height="10.5" fill="#f59e0b" rx="4"/>
<text x="756.7" y="392.5" text-anchor="middle" fill="#e2e8f0" font-size="12" font-family="sans-serif">6.6s</text>
<rect x="791.7" y="72.1" width="54" height="337.9" fill="#10b981" rx="4"/>
<text x="818.7" y="65.1" text-anchor="middle" fill="#e2e8f0" font-size="12" font-family="sans-serif">210.9s</text>
<text x="756.7" y="440" text-anchor="middle" fill="#f8fafc" font-size="16" font-family="sans-serif">UPF</text>
<rect x="180" y="470" width="18" height="18" fill="#3b82f6" rx="3"/>
<text x="206" y="484" fill="#cbd5e1" font-size="14" font-family="sans-serif">MTTD</text>
<rect x="400" y="470" width="18" height="18" fill="#f59e0b" rx="3"/>
<text x="426" y="484" fill="#cbd5e1" font-size="14" font-family="sans-serif">Pod Ready</text>
<rect x="620" y="470" width="18" height="18" fill="#10b981" rx="3"/>
<text x="646" y="484" fill="#cbd5e1" font-size="14" font-family="sans-serif">MTTR</text>
</svg>
